<?xml version="1.0" encoding="utf-8"?>
<!-- Generator: Adobe Illustrator 21.0.2, SVG Export Plug-In . SVG Version: 6.00 Build 0)  -->
<!DOCTYPE svg PUBLIC "-//W3C//DTD SVG 1.1//EN" "http://www.w3.org/Graphics/SVG/1.1/DTD/svg11.dtd" [
	<!ENTITY ns_extend "http://ns.adobe.com/Extensibility/1.0/">
	<!ENTITY ns_ai "http://ns.adobe.com/AdobeIllustrator/10.0/">
	<!ENTITY ns_graphs "http://ns.adobe.com/Graphs/1.0/">
	<!ENTITY ns_vars "http://ns.adobe.com/Variables/1.0/">
	<!ENTITY ns_imrep "http://ns.adobe.com/ImageReplacement/1.0/">
	<!ENTITY ns_sfw "http://ns.adobe.com/SaveForWeb/1.0/">
	<!ENTITY ns_custom "http://ns.adobe.com/GenericCustomNamespace/1.0/">
	<!ENTITY ns_adobe_xpath "http://ns.adobe.com/XPath/1.0/">
]>
<svg version="1.1" id="Layer_1" xmlns:x="&ns_extend;" xmlns:i="&ns_ai;" xmlns:graph="&ns_graphs;"
	 xmlns="http://www.w3.org/2000/svg" xmlns:xlink="http://www.w3.org/1999/xlink" x="0px" y="0px" width="543.7px" height="558.5px"
	 viewBox="0 0 543.7 558.5" style="enable-background:new 0 0 543.7 558.5;" xml:space="preserve">
<style type="text/css">
	.st0{fill:url(#SVGID_1_);}
	.st1{fill:#FF907F;}
	.st2{fill:#554F77;}
	.st3{fill:url(#SVGID_2_);}
	.st4{fill:url(#SVGID_3_);}
	.st5{fill:none;stroke:#554F77;stroke-width:2;stroke-linecap:round;stroke-miterlimit:10;}
	.st6{opacity:0.3;fill:none;stroke:#E9DEFF;stroke-width:2;stroke-linecap:round;stroke-miterlimit:10;}
	.st7{fill:#554081;}
	.st8{opacity:0.3;fill:none;stroke:#E9DEFF;stroke-width:3;stroke-linecap:round;stroke-miterlimit:10;}
	.st9{opacity:0.5;fill:none;stroke:#E9DEFF;stroke-width:3;stroke-linecap:round;stroke-miterlimit:10;}
	.st10{fill:url(#SVGID_4_);}
	.st11{fill:none;stroke:#554F77;stroke-width:3;stroke-linecap:round;stroke-miterlimit:10;}
	.st12{fill:url(#SVGID_5_);}
	.st13{fill:url(#SVGID_6_);}
	.st14{fill:url(#SVGID_7_);}
	.st15{opacity:0.5;fill:#FFFFFF;}
	.st16{fill:#FFFFFF;}
	.st17{opacity:0.5;fill:none;stroke:url(#SVGID_8_);stroke-width:2;stroke-miterlimit:10;}
	.st18{fill:none;stroke:#E9DEFF;stroke-width:2;stroke-linecap:round;stroke-miterlimit:10;}
	.st19{fill:none;stroke:#FF907F;stroke-width:2;stroke-linecap:round;stroke-miterlimit:10;}
	.st20{opacity:0.6;fill:none;stroke:#554F77;stroke-width:2;stroke-linecap:round;stroke-miterlimit:10;}
	.st21{fill:url(#SVGID_9_);}
	.st22{fill:#8F889E;}
	.st23{fill:#E9DEFF;}
	.st24{fill:url(#SVGID_10_);}
	.st25{fill:url(#SVGID_11_);}
	.st26{fill:none;stroke:#FFE4E0;stroke-width:16;stroke-linecap:round;stroke-linejoin:round;stroke-miterlimit:10;}
	.st27{fill:none;stroke:#FFE4E0;stroke-width:4;stroke-linecap:round;stroke-miterlimit:10;}
	.st28{fill:url(#SVGID_12_);}
	.st29{fill:url(#SVGID_13_);}
	.st30{fill:#FFE4E0;}
	.st31{fill:#FF907E;}
	.st32{fill:url(#SVGID_14_);}
	.st33{opacity:0.5;}
	.st34{fill:url(#SVGID_15_);}
	.st35{fill:url(#SVGID_16_);}
	.st36{fill:url(#SVGID_17_);}
	.st37{fill:url(#SVGID_18_);}
	.st38{fill:url(#SVGID_19_);}
	.st39{fill:url(#SVGID_20_);}
	.st40{fill:url(#SVGID_21_);}
	.st41{fill:url(#SVGID_22_);}
	.st42{fill:url(#SVGID_23_);}
	.st43{fill:url(#SVGID_24_);}
	.st44{fill:url(#SVGID_25_);}
	.st45{fill:url(#SVGID_26_);}
	.st46{fill:url(#SVGID_27_);}
	.st47{fill:url(#SVGID_28_);}
	.st48{fill:url(#SVGID_29_);}
	.st49{fill:url(#SVGID_30_);}
	.st50{fill:url(#SVGID_31_);}
	.st51{fill:url(#SVGID_32_);}
	.st52{fill:none;stroke:#FFFFFF;stroke-width:6;stroke-miterlimit:10;}
	.st53{fill:none;stroke:#E9DEFF;stroke-width:3;stroke-miterlimit:10;}
	.st54{fill:none;stroke:url(#SVGID_33_);stroke-width:2;stroke-miterlimit:10;}
	.st55{opacity:0.5;fill:url(#SVGID_34_);}
	.st56{fill:none;stroke:url(#SVGID_35_);stroke-width:3;stroke-linecap:round;stroke-miterlimit:10;}
	.st57{fill:url(#SVGID_36_);}
	.st58{fill:url(#SVGID_37_);}
	.st59{fill:none;stroke:url(#SVGID_38_);stroke-width:2;stroke-miterlimit:10;}
	.st60{fill:none;stroke:url(#SVGID_39_);stroke-width:2;stroke-miterlimit:10;}
	.st61{fill:url(#SVGID_40_);}
	.st62{fill:url(#SVGID_41_);}
	.st63{fill:url(#SVGID_42_);}
	.st64{fill:url(#SVGID_43_);}
	.st65{fill:url(#SVGID_44_);}
	.st66{fill:url(#SVGID_45_);}
	.st67{fill:url(#SVGID_46_);}
	.st68{fill:url(#SVGID_47_);}
	.st69{fill:none;stroke:#EBE0FF;stroke-width:3;stroke-linecap:round;stroke-linejoin:round;stroke-miterlimit:10;}
	.st70{fill:none;stroke:#554F77;stroke-width:3;stroke-linecap:round;stroke-linejoin:round;stroke-miterlimit:10;}
	.st71{fill:none;stroke:#FF907F;stroke-width:3;stroke-linecap:round;stroke-linejoin:round;stroke-miterlimit:10;}
	.st72{fill:none;stroke:#554F77;stroke-linecap:round;stroke-linejoin:round;stroke-miterlimit:10;}
	.st73{fill:url(#SVGID_48_);}
	.st74{fill:none;stroke:#554F77;stroke-width:2;stroke-miterlimit:10;}
	.st75{font-family:'SofiaProRegular';}
	.st76{font-size:5.4599px;}
	.st77{fill:#A46799;}
	.st78{fill:none;stroke:#554F77;stroke-linecap:round;stroke-miterlimit:10;}
	.st79{fill:none;stroke:#554F77;stroke-miterlimit:10;}
	.st80{fill:none;stroke:#FF907F;stroke-miterlimit:10;}
	.st81{fill:none;stroke:#E9DEFF;stroke-miterlimit:10;}
	.st82{fill:none;stroke:#554F77;stroke-width:3;stroke-miterlimit:10;}
	.st83{fill:none;stroke:#FF907F;stroke-width:3;stroke-miterlimit:10;}
	.st84{fill:none;stroke:#FF907F;stroke-width:2;stroke-miterlimit:10;}
	.st85{fill:none;stroke:#554F77;stroke-width:2;stroke-linejoin:round;stroke-miterlimit:10;}
</style>
<metadata>
	<sfw  xmlns="&ns_sfw;">
		<slices></slices>
		<sliceSourceBounds  bottomLeftOrigin="true" height="558.5" width="543.7" x="2280.6" y="-2619.6"></sliceSourceBounds>
	</sfw>
</metadata>
<g>
	<g>
		<linearGradient id="SVGID_1_" gradientUnits="userSpaceOnUse" x1="446.8647" y1="172.8358" x2="477.0759" y2="172.8358">
			<stop  offset="0" style="stop-color:#E9DEFF"/>
			<stop  offset="0.4584" style="stop-color:#E7DBFD"/>
			<stop  offset="0.7445" style="stop-color:#DFD3F6"/>
			<stop  offset="0.983" style="stop-color:#D1C4EB"/>
			<stop  offset="1" style="stop-color:#D0C3EA"/>
		</linearGradient>
		<path class="st0" d="M448.1,172.8l1.4-0.9c0.4-0.3,1-0.6,1.5-1c0.5-0.3,1.1-0.6,1.7-0.9c0.6-0.3,1.1-0.5,1.7-0.8
			c2.3-0.9,4.8-1.5,7.4-1.8s5.1-0.1,7.7,0.3c1.3,0.2,2.5,0.6,3.8,1c0.6,0.2,1.2,0.5,1.8,0.7c0.3,0.1,0.6,0.3,0.9,0.4l0.4,0.2
			l0.2,0.1l0.1,0.1l0.1,0l0,0l0,0l0,0c-1,1.7,2.3-3.9-2.2,3.9c-4.5,7.8-1.2,2.2-2.3,3.9l0,0l0,0l0,0l0,0l-0.1,0l-0.1-0.1l-0.3-0.2
			c-0.2-0.1-0.4-0.2-0.6-0.4c-0.4-0.2-0.8-0.4-1.2-0.6c-0.8-0.4-1.7-0.8-2.5-1c-1.7-0.6-3.6-0.9-5.4-1c-1.9-0.1-3.8,0.1-5.6,0.6
			c-0.5,0.1-0.9,0.3-1.4,0.4c-0.4,0.2-0.9,0.3-1.4,0.5c-0.5,0.2-0.9,0.4-1.4,0.6l-1.5,0.7c-1.4,0.7-3,0.1-3.7-1.3
			C446.5,175,447,173.5,448.1,172.8z"/>
		<g>
			<path class="st1" d="M512.7,255.6v11.9c0,2.3-3.4,4.2-7.6,4.2c-4.2,0-7.6-1.9-7.6-4.2v-11.9H512.7z"/>
		</g>
		<path class="st2" d="M505.1,262.4L505.1,262.4c9.4,0,16.9-7.6,16.9-16.9v-1.9h-33.9v1.9C488.1,254.9,495.7,262.4,505.1,262.4z"/>
		<linearGradient id="SVGID_2_" gradientUnits="userSpaceOnUse" x1="468.5561" y1="177.1208" x2="551.0561" y2="175.6208">
			<stop  offset="0.3907" style="stop-color:#FFFFFF"/>
			<stop  offset="1" style="stop-color:#E9DEFF"/>
		</linearGradient>
		<path class="st3" d="M505.5,248.7L505.5,248.7c-19.6,0-35.5-15.9-35.5-35.5v-75.5c0-18.5,15-33.4,33.4-33.4h0
			c18,0,32.6,14.6,32.6,32.6v81.3C536.1,235,522.4,248.7,505.5,248.7z"/>
		<linearGradient id="SVGID_3_" gradientUnits="userSpaceOnUse" x1="470.0789" y1="152.8221" x2="500.1375" y2="152.8221">
			<stop  offset="0" style="stop-color:#FCE7FA"/>
			<stop  offset="0.1631" style="stop-color:#F4E3FC"/>
			<stop  offset="0.4847" style="stop-color:#ECDFFE"/>
			<stop  offset="1" style="stop-color:#E9DEFF"/>
		</linearGradient>
		<path class="st4" d="M482.7,169.1l-12.6-7.3V135l24.2,14c3.6,2.1,5.8,5.9,5.8,10.1v0C500.1,168,490.5,173.6,482.7,169.1z"/>
		<g>
			<path class="st5" d="M476.2,155.3L476.2,155.3c0,1.4,1.2,3.3,2.6,4.1l1.4,0.8c1.4,0.8,2.6,0.3,2.6-1.1l0,0"/>
			<polygon class="st2" points="476,151.2 472.6,149.3 472.6,146 476,147.9 			"/>
			<polygon class="st2" points="486.8,157.8 483.5,155.9 483.5,152.6 486.8,154.5 			"/>
		</g>
		<g>
			<line class="st6" x1="477.5" y1="182.5" x2="474.8" y2="180.9"/>
			<path class="st6" d="M502.8,216.3v-7.2c0-7.2-5.3-16.1-11.9-19.9l-8.4-4.8"/>
			<path class="st6" d="M476.4,219.2l14.5,8.4c5.6,3.2,10.3,1.7,11.6-3.3"/>
			<path class="st1" d="M487.5,195.2c0,1,0.8,2.3,1.9,2.9c1,0.6,1.9,0.2,1.9-0.8s-0.8-2.3-1.9-2.9
				C488.3,193.8,487.5,194.2,487.5,195.2z"/>
			<path class="st1" d="M481.2,191.6c0,1,0.8,2.3,1.9,2.9c1,0.6,1.9,0.2,1.9-0.8s-0.8-2.3-1.9-2.9
				C482.1,190.2,481.2,190.6,481.2,191.6z"/>
			<path class="st7" d="M475.3,188.2c0,1,0.8,2.3,1.9,2.9c1,0.6,1.9,0.2,1.9-0.8s-0.8-2.3-1.9-2.9
				C476.1,186.8,475.3,187.1,475.3,188.2z"/>
			<path class="st8" d="M492,215.6c0.6-0.7,1-1.8,1-3.1v0c0-4.1-3.3-9.2-7.3-11.6l-3.7-2.1c-4.2-2.4-7.6-0.8-7.3,3.5v0
				c0.2,4,3.4,8.9,7.3,11.2l3.7,2.1c0.4,0.3,0.9,0.5,1.3,0.6"/>
			<path class="st2" d="M482,210.2l2,1.2c2.3,1.3,4.1,0.5,4.1-1.7l0,0c0-2.3-1.8-5.1-4.1-6.4l-2-1.2c-2.3-1.4-4.2-0.5-4.1,2v0
				C478.1,206.2,479.9,208.9,482,210.2z"/>
			<path class="st1" d="M476.4,213.8l2,1.2c2.3,1.3,4.1,0.5,4.1-1.7v0c0-2.3-1.8-5.1-4.1-6.4l-2-1.2c-2.3-1.4-4.2-0.5-4.1,2l0,0
				C472.5,209.8,474.3,212.6,476.4,213.8z"/>
			<path class="st1" d="M479,204.3c0,1.3,1,2.9,2.3,3.6c1.3,0.7,2.3,0.3,2.3-1s-1-2.9-2.3-3.6C480,202.6,479,203,479,204.3z"/>
		</g>
		<path class="st9" d="M533,198c-2.2,2.6-5.1,4.7-8.1,5.9c-7.1,2.6-12.9-1.1-12.9-8.2s5.8-15,12.9-17.5c2.8-1,5.4-1.1,7.5-0.3"/>
		<linearGradient id="SVGID_4_" gradientUnits="userSpaceOnUse" x1="519.6136" y1="204.38" x2="543.6528" y2="204.38">
			<stop  offset="0" style="stop-color:#D0C3EA"/>
			<stop  offset="1.695293e-02" style="stop-color:#D1C4EB"/>
			<stop  offset="0.2555" style="stop-color:#DFD3F6"/>
			<stop  offset="0.5416" style="stop-color:#E7DBFD"/>
			<stop  offset="1" style="stop-color:#E9DEFF"/>
		</linearGradient>
		<path class="st10" d="M527.3,186.7l4.3,2.7l2.1,1.4l1.1,0.7c0.4,0.2,0.7,0.4,1.2,0.8c3.7,2.5,6.6,6.5,7.4,10.9
			c0.5,2.2,0.4,4.4,0.1,6.5c-0.2,1.1-0.5,2.1-0.9,3.1c-0.3,1-0.9,2-1.4,2.9c-2.3,3.7-6.1,6.2-10.1,7.1c-1.7,0.4-3.3-0.7-3.7-2.3
			c-0.4-1.5,0.5-3.1,2-3.6l0.1,0c2.5-0.9,4.5-2.6,5.6-4.8c0.2-0.6,0.5-1.1,0.6-1.7c0.2-0.6,0.2-1.2,0.3-1.8c0-1.2,0-2.4-0.4-3.5
			l-0.1-0.4c-0.1-0.1-0.1-0.3-0.2-0.4c-0.1-0.3-0.2-0.5-0.3-0.8l-0.5-0.7l-0.2-0.4l-0.3-0.3c-0.2-0.2-0.4-0.4-0.6-0.6l-0.7-0.5
			c-0.4-0.4-1-0.6-1.4-0.9c-0.2-0.1-0.6-0.4-1-0.5l-1.1-0.6l-2.3-1.2l-4.5-2.3c-2.5-1.3-3.4-4.3-2.2-6.7s4.3-3.4,6.7-2.2
			C527.1,186.5,527.2,186.6,527.3,186.7z"/>
		<path class="st11" d="M520.5,220.3c0.8-1.4,1.9-2.6,3.1-3.3c2.7-1.6,4.9,0.1,4.9,3.7s-2.2,7.8-4.9,9.3c-0.3,0.2-0.7,0.3-1,0.4"/>
		<path class="st11" d="M444,183.7c2.5,1.9,4.9,1.3,5.2-1.5c0.3-2.7-1.5-6.5-4-8.4c-2.5-1.9-4.9-1.3-5.2,1.5"/>
	</g>
	<g>
		<linearGradient id="SVGID_5_" gradientUnits="userSpaceOnUse" x1="504.0648" y1="260.0237" x2="504.0648" y2="342.0265">
			<stop  offset="0" style="stop-color:#E9DEFF"/>
			<stop  offset="1" style="stop-color:#FF907F;stop-opacity:0"/>
		</linearGradient>
		<path class="st12" d="M512.7,355.1l12.5-51.8c2.3-9.5-1.7-19.5-10.2-24.3c-3.2-1.8-6.9-2.8-10.9-2.8c-0.4,0-0.9,0-1.3,0
			c-13.6,0.8-23,14.2-19.7,27.5l12.5,51.4H512.7z"/>
		<linearGradient id="SVGID_6_" gradientUnits="userSpaceOnUse" x1="504.0642" y1="356.1386" x2="504.0642" y2="285.4904">
			<stop  offset="0" style="stop-color:#FF907F;stop-opacity:0.8"/>
			<stop  offset="1" style="stop-color:#E9DEFF;stop-opacity:0.5"/>
		</linearGradient>
		<path class="st13" d="M509.1,290.9l-5,65.2l-5-65.2c-0.2-2.8,1.9-5.2,4.6-5.4c2.8-0.2,5.2,1.9,5.4,4.6
			C509.1,290.4,509.1,290.6,509.1,290.9z"/>
	</g>
	<g>
		<linearGradient id="SVGID_7_" gradientUnits="userSpaceOnUse" x1="105.8562" y1="77.0742" x2="169.2526" y2="77.0742">
			<stop  offset="0" style="stop-color:#FF907F"/>
			<stop  offset="1" style="stop-color:#FF907F;stop-opacity:0"/>
		</linearGradient>
		<polygon class="st14" points="169.3,130.3 105.9,93.7 105.9,23.9 169.3,60.5 		"/>
		<g>
			<path class="st15" d="M148.8,58.7l-26-15c-0.6-0.3-1-1-1-1.6v0c0-0.5,0.4-0.7,1-0.4l26,15c0.6,0.3,1,1,1,1.6l0,0
				C149.8,58.8,149.4,59,148.8,58.7z"/>
			<g>
				<path class="st16" d="M112.7,36.8c0,0.4-0.3,0.5-0.7,0.3s-0.7-0.7-0.7-1.1s0.3-0.5,0.7-0.3C112.4,36,112.7,36.5,112.7,36.8z"/>
				<path class="st16" d="M115.3,38.3c0,0.4-0.3,0.5-0.7,0.3c-0.4-0.2-0.7-0.7-0.7-1.1c0-0.4,0.3-0.5,0.7-0.3S115.3,38,115.3,38.3z"
					/>
				<path class="st16" d="M117.9,39.8c0,0.4-0.3,0.5-0.7,0.3c-0.4-0.2-0.7-0.7-0.7-1.1s0.3-0.5,0.7-0.3S117.9,39.5,117.9,39.8z"/>
			</g>
		</g>
	</g>
	<g>
		
			<linearGradient id="SVGID_8_" gradientUnits="userSpaceOnUse" x1="125.5678" y1="88.3773" x2="162.853" y2="88.3773" gradientTransform="matrix(1 0 0 1 0 -0.7)">
			<stop  offset="0" style="stop-color:#554F77"/>
			<stop  offset="1" style="stop-color:#FF907F;stop-opacity:0.1"/>
		</linearGradient>
		<polygon class="st17" points="161.9,119.5 126.6,99.1 126.6,55.9 161.9,76.3 		"/>
		<g>
			<line class="st18" x1="141.1" y1="99.8" x2="133.1" y2="95.2"/>
			<line class="st19" x1="139.6" y1="93.5" x2="135.9" y2="91.3"/>
			<line class="st5" x1="147" y1="97.7" x2="142.5" y2="95.2"/>
			<line class="st5" x1="135.8" y1="80.4" x2="133.1" y2="78.9"/>
			<line class="st19" x1="149.2" y1="88.2" x2="138.8" y2="82.2"/>
			<line class="st19" x1="138.2" y1="76.4" x2="134.9" y2="74.5"/>
			<line class="st5" x1="152.6" y1="84.7" x2="141.1" y2="78"/>
			<line class="st18" x1="144.8" y1="91" x2="140" y2="88.3"/>
			<line class="st19" x1="152.6" y1="95.6" x2="148.8" y2="93.4"/>
			<line class="st19" x1="143.7" y1="74.1" x2="149.1" y2="77.3"/>
			<line class="st18" x1="133.1" y1="68" x2="140.7" y2="72.4"/>
		</g>
		<g>
			<line class="st18" x1="118.8" y1="86.9" x2="118.1" y2="86.5"/>
			<line class="st18" x1="118.8" y1="81.4" x2="118.1" y2="81.1"/>
			<line class="st18" x1="118.8" y1="70.6" x2="118.1" y2="70.2"/>
			<line class="st18" x1="118.8" y1="65.2" x2="118.1" y2="64.8"/>
			<line class="st18" x1="118.8" y1="76" x2="118.1" y2="75.6"/>
		</g>
		<polyline class="st20" points="114.8,52.4 116.8,55.6 114.8,56.4 		"/>
	</g>
	<g>
		<linearGradient id="SVGID_9_" gradientUnits="userSpaceOnUse" x1="269.7778" y1="127.7739" x2="341.6058" y2="127.7739">
			<stop  offset="0.3907" style="stop-color:#FFFFFF"/>
			<stop  offset="1" style="stop-color:#E9DEFF"/>
		</linearGradient>
		<path class="st21" d="M274.9,147.2l-2.3-1.2c-3.8-2-3.9-7.3-0.2-9.4l51.9-29.8l17.2,8.9L287.2,147
			C283.5,149.2,278.8,149.3,274.9,147.2z"/>
		<path class="st2" d="M333.8,146.9l2.5-103.5c0-0.1,0-0.2,0-0.3v0c-0.1-3.2,3.2-5.4,6.1-4.1l69.6,32c12.9,5.9,20.5,19.6,18.6,33.7
			l-9.6,71.5c-1.6,11.7-14.5,18-24.6,12.1l-58.2-33.7"/>
		<g>
			<path class="st22" d="M394.4,228.9l-15,78.2l-15-78.2c-1.6-8.3,3.8-16.3,12.1-17.9c8.3-1.6,16.3,3.8,17.9,12.1
				C394.8,225.1,394.8,227.1,394.4,228.9z"/>
		</g>
		<path class="st2" d="M264.8,299.2l-84-48.7l143.7-82.9l84,35.9v0c0,7.9-4.2,15.2-11.1,19.2L264.8,299.2z"/>
		<path class="st2" d="M273.8,283.6l-84-48.7l143.7-82.9l71.1,41.2c5.8,3.3,5.7,11.7,0,15L273.8,283.6z"/>
		<path class="st23" d="M386.8,201.3L386.8,201.3c7.4-12.8,3-29.1-9.8-36.5l-40.1-23.2L300.4,205l23.1,13.3
			C345.7,231.1,374,223.5,386.8,201.3z"/>
		<g>
			<path class="st23" d="M238.5,344.1l-3.3-51.5l-1.7-25.8l-0.8-12.9l-0.4-6.4l-0.1-0.8c0-0.2,0-0.2,0-0.5l0-0.7
				c0-0.9,0-1.9,0.1-2.8c0.2-1.9,0.5-3.8,1-5.6c1-3.7,2.7-7.2,5-10.3c2.3-3.1,5.3-5.8,8.5-7.8l10.7-7.2l21.5-14.3l43-28.6
				c9.2-6.1,21.7-3.6,27.8,5.6c6.1,9.2,3.6,21.7-5.6,27.8c-0.7,0.5-1.5,0.9-2.2,1.3l-46.3,22.9l-23.1,11.4l-11.6,5.7
				c-0.5,0.1-0.8,0.2-1.2,0.5c-0.4,0.2-0.7,0.6-1,1c-0.2,0.2-0.2,0.4-0.4,0.7c0,0.1-0.1,0.3-0.1,0.4l0,0.1c0,0,0,0.2,0,0.3l-0.1,0.8
				l-0.4,6.4l-0.8,12.9l-1.7,25.8l-3.3,51.5c-0.2,3.7-3.4,6.5-7.2,6.3C241.4,350.2,238.7,347.5,238.5,344.1z"/>
		</g>
		<g>
			<path class="st23" d="M263.5,360.1l-3.3-51.5l-1.7-25.8l-0.8-12.9l-0.4-6.4l-0.1-0.8c0-0.2,0-0.2,0-0.5l0-0.7
				c0-0.9,0-1.9,0.1-2.8c0.2-1.9,0.5-3.8,1-5.6c1-3.7,2.7-7.2,5-10.3c2.3-3.1,5.3-5.8,8.5-7.8l10.7-7.2l21.5-14.3l43-28.6
				c9.2-6.1,21.7-3.6,27.8,5.6c6.1,9.2,3.6,21.7-5.6,27.8c-0.7,0.5-1.5,0.9-2.2,1.3l-46.3,22.9l-23.1,11.4l-11.6,5.7
				c-0.5,0.1-0.8,0.2-1.2,0.5c-0.4,0.2-0.7,0.6-1,1c-0.2,0.2-0.2,0.4-0.4,0.7c0,0.1-0.1,0.3-0.1,0.4l0,0.1c0,0,0,0.2,0,0.3l-0.1,0.8
				l-0.4,6.4l-0.8,12.9l-1.7,25.8l-3.3,51.5c-0.2,3.7-3.4,6.5-7.2,6.3C266.3,366.2,263.7,363.5,263.5,360.1z"/>
		</g>
		<linearGradient id="SVGID_10_" gradientUnits="userSpaceOnUse" x1="361.6343" y1="187.2026" x2="433.1188" y2="187.2026">
			<stop  offset="0.3907" style="stop-color:#FFFFFF"/>
			<stop  offset="1" style="stop-color:#E9DEFF"/>
		</linearGradient>
		<path class="st24" d="M372.1,206.1l-10.5-5.5l57.8-33.1c1.7-1,3.7-1,5.4-0.1l5.2,2.7c4,2.1,4.1,7.7,0.2,10l-44.9,25.8
			C381.3,208.2,376.3,208.3,372.1,206.1z"/>
		<path class="st2" d="M343.7,5.6l-2.5,0.7c-4.7,1.3-8.8,4.4-11.2,8.6v0c-2.5,4.3-3.1,9.3-1.9,14.1l1.3,4.9
			c1.3,4.7,4.4,8.8,8.6,11.2l3.6,2.1L343.7,5.6z"/>
		<path class="st1" d="M344.3,169.5l-9.5-4.8c-4.5-2.3-7.5-6.8-7.9-11.9l-2-30.6h0c-5.7-3.3-9.1-9.5-8.6-16.1c0-0.3,0-0.5,0.1-0.8
			l5.5-32.6c1.2-9.9,9.3-17,18-12.7c0.6,0.3,1.2,0.5,1.8,0.6l24.5,4.1c2.9,0.5,5.2,2.8,5.6,5.7l0.8,5.4c0.3,1.9,1.4,3.6,3,4.7
			c9,6.2,14.6,16.3,15,27.3c0,0.9-0.1,1.8-0.5,2.6l-2.9,7.3c-0.4,1.1-0.7,2.3-0.8,3.4l-5.8,45.7c-0.6,4.8-4.8,8.3-9.7,8.1l-7.3-0.4
			C356.8,174.2,350.3,172.5,344.3,169.5z"/>
		<linearGradient id="SVGID_11_" gradientUnits="userSpaceOnUse" x1="397.6759" y1="132.4272" x2="376.6759" y2="124.9272">
			<stop  offset="0" style="stop-color:#554F77"/>
			<stop  offset="1" style="stop-color:#FF907F;stop-opacity:0"/>
		</linearGradient>
		<path class="st25" d="M344.3,169.5l-9.5-4.8c-4.5-2.3-7.5-6.8-7.9-11.9l-2-30.6h0c-5.7-3.3-9.1-9.5-8.6-16.1c0-0.3,0-0.5,0.1-0.8
			l5.5-32.6c1.2-9.9,9.3-17,18-12.7c0.6,0.3,1.2,0.5,1.8,0.6l24.5,4.1c2.9,0.5,5.2,2.8,5.6,5.7l0.8,5.4c0.3,1.9,1.4,3.6,3,4.7
			c9,6.2,14.6,16.3,15,27.3c0,0.9-0.1,1.8-0.5,2.6l-2.9,7.3c-0.4,1.1-0.7,2.3-0.8,3.4l-5.8,45.7c-0.6,4.8-4.8,8.3-9.7,8.1l-7.3-0.4
			C356.8,174.2,350.3,172.5,344.3,169.5z"/>
		<g>
			<path class="st1" d="M346.4,88.9l-14.2-8.8l-3.6-2.2c-0.1-0.1-0.1-0.1-0.1-0.1l-0.1,0c0,0-0.1,0-0.1-0.1
				c-0.1-0.1-0.1-0.1-0.2-0.1c-0.1-0.1-0.3-0.1-0.4-0.2c-0.6-0.2-1.3-0.2-2,0c-0.3,0.1-0.6,0.3-0.9,0.5c-0.2,0.1-0.3,0.2-0.4,0.4
				c-0.1,0.1-0.1,0.2-0.2,0.2c0,0,0,0-0.1,0.1l-0.2,0.2l-0.3,0.5l-2.5,3.8l-2.7,3.7c-3.7,4.8-7.7,9.4-12.1,13.5
				c-8.7,8.4-18.9,15.1-29.8,20c-5.4,2.5-11.1,4.4-16.9,6l-2.2,0.6l-2,0.5l-4.1,1l-8.1,1.9c-3.5,0.8-6.9-1.3-7.8-4.8
				c-0.8-3.3,1.2-6.7,4.4-7.7l8-2.4l4-1.2l2-0.6l1.8-0.6c4.9-1.6,9.7-3.6,14.2-6c9.1-4.9,17.4-11.1,24.3-18.6
				c3.5-3.7,6.6-7.7,9.4-12l2-3.2l1.9-3.3l0.2-0.4l0.3-0.6c0.3-0.5,0.6-1,1-1.5c0.7-1,1.4-1.9,2.3-2.8c1.7-1.7,3.7-3.2,5.8-4.3
				c4.3-2.2,9.4-3,14.3-2c1.2,0.2,2.4,0.5,3.6,1c0.6,0.2,1.2,0.4,1.7,0.7l0.8,0.4l0.8,0.4l3.7,2l14.7,7.9c5.1,2.7,7,9.1,4.3,14.2
				c-2.7,5.1-9.1,7-14.2,4.3C346.7,89.1,346.5,89,346.4,88.9z"/>
		</g>
		<g>
			<line class="st26" x1="241.7" y1="124.1" x2="233" y2="126.5"/>
			<path class="st27" d="M233,130.3"/>
		</g>
		<g>
			<path class="st1" d="M365.2,62.2l8.4,5l2.1,1.3l1.1,0.6l0.6,0.4L378,70c1.8,1.1,3.5,2.4,5.1,3.8c6.4,5.5,11.1,12.9,13.5,20.9
				c0.3,1,0.6,2,0.8,3.1l0.3,1.6l0.2,1.2l0.7,4.9l1.4,9.8l2.8,19.5l1.4,9.8l0.2,1.4c0.1,0.6,0.1,1.1,0.2,1.7
				c0.1,1.1,0.1,2.3,0.1,3.4c-0.1,2.3-0.5,4.5-1.1,6.7c-0.6,2.2-1.5,4.3-2.6,6.2c-0.5,1-1.2,2-1.8,2.8l-1.4,2l-5.7,8l-23,31.9
				l-10.7-7.3l21.2-33.1l5.3-8.3l1.3-2.1c0.3-0.5,0.5-0.9,0.8-1.4c0.4-0.9,0.8-1.9,1-2.9c0.2-1,0.3-2,0.3-3c0-0.5,0-1-0.1-1.5
				c0-0.2-0.1-0.5-0.1-0.7l-0.2-1.1l-1.9-9.6l-3.9-19.2l-1.9-9.6l-1-4.8l-0.2-1.2l-0.2-0.8c-0.1-0.5-0.4-1.1-0.5-1.6
				c-1.6-4.4-4.5-8.4-8.2-11.2c-0.9-0.7-1.9-1.4-2.9-1.9l-4-2.3l-8.6-4.8L365.2,62.2z"/>
		</g>
		<radialGradient id="SVGID_12_" cx="361.4397" cy="119.8884" r="15.6241" gradientUnits="userSpaceOnUse">
			<stop  offset="0" style="stop-color:#554F77"/>
			<stop  offset="1" style="stop-color:#FF907F;stop-opacity:0"/>
		</radialGradient>
		<path class="st28" d="M375.5,119.6L375.5,119.6l9.7,12.2l-15.7,33.4l-23.3-12.7v-25.1l0,0C356.4,133.4,369.6,129.9,375.5,119.6z"
			/>
		<g>
			<linearGradient id="SVGID_13_" gradientUnits="userSpaceOnUse" x1="343.0134" y1="55.6328" x2="353.1808" y2="58.9244">
				<stop  offset="0" style="stop-color:#FF907F"/>
				<stop  offset="1" style="stop-color:#FFE4E0"/>
			</linearGradient>
			<path class="st29" d="M352.1,80.4l-6.6-3.8c-3.9-2.3-6.3-6.4-6.3-10.9v-8.2V32.3l26,22.6l-0.4,18.1
				C364.8,79.6,357.7,83.7,352.1,80.4z"/>
			<path class="st30" d="M330.1,24.2l-0.1,0.2c-2.2,6.2-2.5,13-0.8,19.4l3,11c0.8,3.1,2.8,5.7,5.6,7.3v0c2.8,1.6,6,2,9.1,1.2v0
				c9-2.4,16.7-8.3,21.3-16.4l3.1-5.4l-6.4-23.9l-18.7-4.4c-1.3-0.3-2.7-0.2-4.3,0.2C336.4,14.7,332,18.9,330.1,24.2z"/>
			<g>
				<g>
					<path class="st2" d="M330.4,31.9c0.3-0.5,0.9-0.8,1.6-0.8c0.6-0.1,1.3,0.1,1.8,0.4c1,0.6,1.8,1.8,1.7,3
						c-0.7-0.9-1.4-1.6-2.2-2.1C332.4,31.9,331.5,31.7,330.4,31.9z"/>
				</g>
				<path class="st2" d="M333.6,35.5c0,0.7-0.5,0.9-1.2,0.5c-0.7-0.4-1.2-1.2-1.2-1.9s0.5-0.9,1.2-0.5
					C333.1,34.1,333.6,34.9,333.6,35.5z"/>
				<g>
					<path class="st2" d="M343.6,36.7c0.8-0.2,1.6-0.1,2.4,0.2c0.8,0.3,1.4,0.8,2,1.4c0.5,0.6,1,1.3,1.2,2.1
						c0.3,0.8,0.3,1.6,0.1,2.4c-0.2-0.8-0.5-1.4-0.8-2c-0.3-0.6-0.8-1.2-1.2-1.7C346.3,38,345.1,37.1,343.6,36.7z"/>
				</g>
				<path class="st2" d="M346.3,42.3c0,0.7-0.5,0.9-1.2,0.5c-0.7-0.4-1.2-1.2-1.2-1.9s0.5-0.9,1.2-0.5
					C345.8,40.9,346.3,41.7,346.3,42.3z"/>
			</g>
			<g>
				<path class="st31" d="M338.7,51c0.2,0,0.1,0,0.1,0l0,0l0,0l0,0l0,0l0,0l0.1,0l0.1,0.1c0.1,0.1,0.1,0.1,0.2,0.2
					c0.1,0.2,0.2,0.3,0.3,0.5c0.1,0.4,0.1,0.9-0.2,1.3c-0.2,0.5-0.7,0.8-1.1,1c-0.5,0.2-0.9,0.2-1.3,0.2c-0.8-0.1-1.4-0.5-1.8-1
					c-0.4-0.5-0.6-1.2-0.4-2l0-0.1c0,0,0-0.1,0.1-0.1c0,0,0,0,0,0c0.7,0.5,1.4,1.1,2.3,1.2c0.4,0.1,0.8,0,1.1-0.3
					c0.1-0.1,0.2-0.3,0.3-0.5c0-0.1,0.1-0.2,0.1-0.3c0-0.1,0-0.1,0-0.2l0-0.1l0,0l0,0l0,0l0,0l0,0v0C338.7,51,338.5,51,338.7,51z"/>
			</g>
			
				<linearGradient id="SVGID_14_" gradientUnits="userSpaceOnUse" x1="332.8036" y1="0.527" x2="337.1997" y2="0.527" gradientTransform="matrix(1 -0.8391 0 1 0 321.3456)">
				<stop  offset="0" style="stop-color:#FF907F;stop-opacity:0.6"/>
				<stop  offset="1" style="stop-color:#FF907F;stop-opacity:0"/>
			</linearGradient>
			<path class="st32" d="M337.2,44.4l-1.5,1.3c-1.4,1.2-3.4-0.3-2.7-2l4.3-10.2V44.4z"/>
		</g>
		<path class="st2" d="M334.8,15.9l8-10l12.3-4.5c5-1.8,10.5-1.9,15.5-0.1v0c7.8,2.8,13.5,9.6,14.9,17.7l1,5.8v5.3
			c0,8.4-2.2,16.7-6.4,23.9l0,0c-3.3,5.7-8.7,9.8-15,11.5l-16.6,4.4v0c3.2-5.5,4.8-11.7,4.9-18l0-13.7c0-3.2-1.7-6.1-4.4-7.7l0,0
			c-4.5-2.6-8.3-6.2-11.2-10.5L334.8,15.9z"/>
		<g class="st33">
			<g>
				<linearGradient id="SVGID_15_" gradientUnits="userSpaceOnUse" x1="210.4397" y1="206.2531" x2="492.3752" y2="206.2531">
					<stop  offset="0" style="stop-color:#FF907F;stop-opacity:0.1"/>
					<stop  offset="1" style="stop-color:#E9DEFF"/>
				</linearGradient>
				<path class="st34" d="M482.4,206.9l-2.8-1.1c-0.1,0-0.1-0.1-0.1-0.1c0-0.1,0.1-0.1,0.1-0.1c0,0,0,0,0,0L482.4,206.9z"/>
				<linearGradient id="SVGID_16_" gradientUnits="userSpaceOnUse" x1="210.4397" y1="199.284" x2="492.3752" y2="199.284">
					<stop  offset="0" style="stop-color:#FF907F;stop-opacity:0.1"/>
					<stop  offset="1" style="stop-color:#E9DEFF"/>
				</linearGradient>
				<path class="st35" d="M470.3,202.1l-10.2-4.1c-0.4-0.2-0.6-0.7-0.5-1.1c0.2-0.4,0.7-0.6,1.1-0.5c0,0,0,0,0.1,0l9.9,4.8
					c0.2,0.1,0.3,0.4,0.2,0.6C470.8,202.1,470.5,202.2,470.3,202.1z"/>
				<linearGradient id="SVGID_17_" gradientUnits="userSpaceOnUse" x1="210.4397" y1="193.8783" x2="492.3752" y2="193.8783">
					<stop  offset="0" style="stop-color:#FF907F;stop-opacity:0.1"/>
					<stop  offset="1" style="stop-color:#E9DEFF"/>
				</linearGradient>
				<path class="st36" d="M457.3,196.9l-9.3-3.7c-0.7-0.3-1-1-0.7-1.7c0.3-0.7,1-1,1.7-0.7c0,0,0.1,0,0.1,0l9,4.3
					c0.5,0.2,0.7,0.8,0.4,1.3C458.2,196.9,457.7,197.1,457.3,196.9z"/>
				<linearGradient id="SVGID_18_" gradientUnits="userSpaceOnUse" x1="210.4397" y1="186.9707" x2="492.3752" y2="186.9707">
					<stop  offset="0" style="stop-color:#FF907F;stop-opacity:0.1"/>
					<stop  offset="1" style="stop-color:#E9DEFF"/>
				</linearGradient>
				<path class="st37" d="M437.7,189.2l-2.8-1.1c-0.9-0.4-1.4-1.4-1-2.3c0.4-0.9,1.4-1.4,2.3-1c0,0,0.1,0,0.1,0.1l2.7,1.3
					c0.8,0.4,1.2,1.4,0.8,2.2C439.5,189.2,438.5,189.5,437.7,189.2z"/>
				<linearGradient id="SVGID_19_" gradientUnits="userSpaceOnUse" x1="210.4397" y1="180.0016" x2="492.3752" y2="180.0016">
					<stop  offset="0" style="stop-color:#FF907F;stop-opacity:0.1"/>
					<stop  offset="1" style="stop-color:#E9DEFF"/>
				</linearGradient>
				<path class="st38" d="M425.6,184.4l-10.2-4.1c-1.3-0.5-1.9-2-1.4-3.3c0.5-1.3,2-1.9,3.3-1.4c0.1,0,0.1,0,0.2,0.1l9.9,4.8
					c1.1,0.5,1.5,1.8,1,2.8C427.9,184.3,426.7,184.8,425.6,184.4z"/>
				<linearGradient id="SVGID_20_" gradientUnits="userSpaceOnUse" x1="210.4397" y1="174.5959" x2="492.3752" y2="174.5959">
					<stop  offset="0" style="stop-color:#FF907F;stop-opacity:0.1"/>
					<stop  offset="1" style="stop-color:#E9DEFF"/>
				</linearGradient>
				<path class="st39" d="M412.6,179.2l-9.3-3.7c-1.5-0.6-2.3-2.3-1.7-3.9c0.6-1.5,2.3-2.3,3.9-1.7c0.1,0,0.1,0.1,0.2,0.1l9,4.3
					c1.3,0.6,1.9,2.2,1.2,3.5C415.4,179.2,413.9,179.7,412.6,179.2z"/>
				<linearGradient id="SVGID_21_" gradientUnits="userSpaceOnUse" x1="210.4397" y1="167.6884" x2="492.3752" y2="167.6884">
					<stop  offset="0" style="stop-color:#FF907F;stop-opacity:0.1"/>
					<stop  offset="1" style="stop-color:#E9DEFF"/>
				</linearGradient>
				<path class="st40" d="M393.1,171.5l-2.8-1.1c-1.8-0.7-2.6-2.7-1.9-4.5s2.7-2.6,4.5-1.9c0.1,0,0.2,0.1,0.2,0.1l2.7,1.3
					c1.7,0.8,2.4,2.8,1.6,4.5C396.6,171.4,394.7,172.1,393.1,171.5z"/>
				<linearGradient id="SVGID_22_" gradientUnits="userSpaceOnUse" x1="210.4397" y1="160.7193" x2="492.3752" y2="160.7193">
					<stop  offset="0" style="stop-color:#FF907F;stop-opacity:0.1"/>
					<stop  offset="1" style="stop-color:#E9DEFF"/>
				</linearGradient>
				<path class="st41" d="M381,166.7l-10.2-4.1c-2.2-0.9-3.2-3.3-2.4-5.5c0.9-2.2,3.3-3.2,5.5-2.4c0.1,0,0.2,0.1,0.3,0.1l9.9,4.8
					c1.9,0.9,2.7,3.2,1.8,5.1C385,166.6,382.8,167.4,381,166.7z"/>
				<linearGradient id="SVGID_23_" gradientUnits="userSpaceOnUse" x1="210.4397" y1="155.3136" x2="492.3752" y2="155.3136">
					<stop  offset="0" style="stop-color:#FF907F;stop-opacity:0.1"/>
					<stop  offset="1" style="stop-color:#E9DEFF"/>
				</linearGradient>
				<path class="st42" d="M368,161.5l-9.3-3.7c-2.4-0.9-3.6-3.7-2.6-6c0.9-2.4,3.7-3.6,6-2.6c0.1,0,0.2,0.1,0.3,0.1l9,4.3
					c2.1,1,3,3.6,2,5.7C372.5,161.4,370.1,162.3,368,161.5z"/>
				<linearGradient id="SVGID_24_" gradientUnits="userSpaceOnUse" x1="210.4397" y1="148.406" x2="492.3752" y2="148.406">
					<stop  offset="0" style="stop-color:#FF907F;stop-opacity:0.1"/>
					<stop  offset="1" style="stop-color:#E9DEFF"/>
				</linearGradient>
				<path class="st43" d="M348.5,153.7l-2.8-1.1c-2.6-1-3.9-4-2.9-6.7s4-3.9,6.7-2.9c0.1,0,0.2,0.1,0.3,0.1l2.7,1.3
					c2.5,1.2,3.6,4.2,2.4,6.7C353.7,153.6,350.9,154.7,348.5,153.7z"/>
				<linearGradient id="SVGID_25_" gradientUnits="userSpaceOnUse" x1="210.4397" y1="141.437" x2="492.3752" y2="141.437">
					<stop  offset="0" style="stop-color:#FF907F;stop-opacity:0.1"/>
					<stop  offset="1" style="stop-color:#E9DEFF"/>
				</linearGradient>
				<path class="st44" d="M336.4,148.9l-10.2-4.1c-3-1.2-4.5-4.6-3.3-7.6c1.2-3,4.6-4.5,7.6-3.3c0.1,0,0.3,0.1,0.4,0.2l9.9,4.8
					c2.7,1.3,3.9,4.6,2.6,7.3C342.1,148.8,339,150,336.4,148.9z"/>
				<linearGradient id="SVGID_26_" gradientUnits="userSpaceOnUse" x1="210.4397" y1="136.0313" x2="492.3752" y2="136.0313">
					<stop  offset="0" style="stop-color:#FF907F;stop-opacity:0.1"/>
					<stop  offset="1" style="stop-color:#E9DEFF"/>
				</linearGradient>
				<path class="st45" d="M323.3,143.8l-9.3-3.7c-3.3-1.3-4.8-5-3.6-8.2c1.3-3.3,5-4.8,8.2-3.6c0.1,0.1,0.3,0.1,0.4,0.2l9,4.3
					c3,1.4,4.2,5,2.8,8C329.6,143.7,326.2,144.9,323.3,143.8z"/>
				<linearGradient id="SVGID_27_" gradientUnits="userSpaceOnUse" x1="210.4397" y1="129.1238" x2="492.3752" y2="129.1238">
					<stop  offset="0" style="stop-color:#FF907F;stop-opacity:0.1"/>
					<stop  offset="1" style="stop-color:#E9DEFF"/>
				</linearGradient>
				<path class="st46" d="M303.8,136l-2.8-1.1c-3.5-1.4-5.2-5.4-3.8-8.9c1.4-3.5,5.4-5.2,8.9-3.8c0.1,0.1,0.3,0.1,0.4,0.2l2.7,1.3
					c3.3,1.6,4.8,5.6,3.1,9C310.8,135.9,307.1,137.3,303.8,136z"/>
				<linearGradient id="SVGID_28_" gradientUnits="userSpaceOnUse" x1="210.4397" y1="122.1547" x2="492.3752" y2="122.1547">
					<stop  offset="0" style="stop-color:#FF907F;stop-opacity:0.1"/>
					<stop  offset="1" style="stop-color:#E9DEFF"/>
				</linearGradient>
				<path class="st47" d="M291.7,131.2l-10.2-4.1c-3.9-1.5-5.8-5.9-4.2-9.8c1.5-3.9,5.9-5.8,9.8-4.2c0.2,0.1,0.3,0.1,0.5,0.2
					l9.9,4.8c3.6,1.7,5.1,6,3.4,9.6C299.2,131.1,295.2,132.6,291.7,131.2z"/>
				<linearGradient id="SVGID_29_" gradientUnits="userSpaceOnUse" x1="210.4397" y1="116.749" x2="492.3752" y2="116.749">
					<stop  offset="0" style="stop-color:#FF907F;stop-opacity:0.1"/>
					<stop  offset="1" style="stop-color:#E9DEFF"/>
				</linearGradient>
				<path class="st48" d="M278.7,126.1l-9.3-3.7c-4.1-1.6-6.1-6.3-4.5-10.4s6.3-6.1,10.4-4.5c0.2,0.1,0.4,0.1,0.5,0.2l9,4.3
					c3.8,1.8,5.4,6.4,3.6,10.2C286.7,125.9,282.4,127.5,278.7,126.1z"/>
				<linearGradient id="SVGID_30_" gradientUnits="userSpaceOnUse" x1="210.4397" y1="109.8414" x2="492.3752" y2="109.8414">
					<stop  offset="0" style="stop-color:#FF907F;stop-opacity:0.1"/>
					<stop  offset="1" style="stop-color:#E9DEFF"/>
				</linearGradient>
				<path class="st49" d="M259.2,118.3l-2.8-1.1c-4.4-1.7-6.5-6.7-4.8-11c1.7-4.4,6.7-6.5,11-4.8c0.2,0.1,0.4,0.2,0.5,0.2l2.7,1.3
					c4.2,2,5.9,7,3.9,11.2C267.9,118.1,263.2,119.9,259.2,118.3z"/>
				<linearGradient id="SVGID_31_" gradientUnits="userSpaceOnUse" x1="210.4397" y1="102.8723" x2="492.3752" y2="102.8723">
					<stop  offset="0" style="stop-color:#FF907F;stop-opacity:0.1"/>
					<stop  offset="1" style="stop-color:#E9DEFF"/>
				</linearGradient>
				<path class="st50" d="M247.1,113.5l-10.2-4.1c-4.7-1.9-7.1-7.3-5.2-12s7.3-7.1,12-5.2c0.2,0.1,0.4,0.2,0.6,0.3l9.9,4.8
					c4.4,2.1,6.3,7.4,4.1,11.8C256.3,113.3,251.4,115.2,247.1,113.5z"/>
				<linearGradient id="SVGID_32_" gradientUnits="userSpaceOnUse" x1="210.4397" y1="97.4667" x2="492.3752" y2="97.4667">
					<stop  offset="0" style="stop-color:#FF907F;stop-opacity:0.1"/>
					<stop  offset="1" style="stop-color:#E9DEFF"/>
				</linearGradient>
				<path class="st51" d="M234.1,108.3l-9.3-3.7c-5-2-7.4-7.6-5.4-12.6c2-5,7.6-7.4,12.6-5.4c0.2,0.1,0.4,0.2,0.6,0.3l9,4.3
					c4.7,2.2,6.6,7.8,4.4,12.5C243.8,108.1,238.6,110.1,234.1,108.3z"/>
			</g>
		</g>
		<line class="st26" x1="365.4" y1="203.3" x2="360" y2="211.7"/>
	</g>
	<line class="st52" x1="161.1" y1="128.7" x2="161.1" y2="305.4"/>
	<g>
		<path class="st16" d="M38.6,209.4l-2.5,176.7c0,2.2-1.8,4-4,3.9c-2.2,0-3.9-1.8-3.9-3.9l-2.5-176.7c-0.1-3.6,2.8-6.5,6.4-6.6
			s6.5,2.8,6.6,6.4C38.6,209.3,38.6,209.4,38.6,209.4z"/>
	</g>
	<g>
		<path class="st16" d="M330.4,377.9l-2.5,176.7c0,2.2-1.8,4-4,3.9c-2.2,0-3.9-1.8-3.9-3.9l-2.5-176.7c-0.1-3.6,2.8-6.5,6.4-6.6
			c3.6-0.1,6.5,2.8,6.6,6.4C330.4,377.7,330.4,377.8,330.4,377.9z"/>
	</g>
	<g>
		<path class="st16" d="M460.8,302.4l-2.5,176.7c0,2.2-1.8,4-4,3.9c-2.2,0-3.9-1.8-3.9-3.9l-2.5-176.7c-0.1-3.6,2.8-6.5,6.4-6.6
			s6.5,2.8,6.6,6.4C460.8,302.3,460.8,302.4,460.8,302.4z"/>
	</g>
	<g>
		<path class="st53" d="M36.3,362c0,2.3-1.9,4.2-4.3,4.1c-2.3,0-4.1-1.9-4.1-4.1"/>
		<path class="st53" d="M328.1,530.4c0,2.3-1.9,4.2-4.3,4.1c-2.3,0-4.1-1.9-4.1-4.1"/>
		<path class="st53" d="M458.5,455c0,2.3-1.9,4.2-4.3,4.1c-2.3,0-4.1-1.9-4.1-4.1"/>
	</g>
	<polygon class="st1" points="470.2,323.8 323.8,408.4 323.8,408.4 16,230.7 16,230.7 16,214.6 162.4,130.1 470.2,307.8 	"/>
	<path class="st16" d="M323.9,396.4L0,209.4l162.5-93.8l323.9,187L323.9,396.4z"/>
	<g>
		<polygon class="st23" points="177.9,198.2 178,192.3 353.1,251.4 353,257.3 316.6,278.2 		"/>
		<polygon class="st2" points="178,192.3 214.3,171.3 353.1,251.4 316.7,272.4 		"/>
	</g>
	<linearGradient id="SVGID_33_" gradientUnits="userSpaceOnUse" x1="277.8783" y1="189.2248" x2="323.1299" y2="189.2248">
		<stop  offset="0" style="stop-color:#E9DEFF"/>
		<stop  offset="1" style="stop-color:#FF907F;stop-opacity:0.1"/>
	</linearGradient>
	<polygon class="st54" points="322.1,223.3 278.9,198.4 278.9,155.1 322.1,180.1 	"/>
	<linearGradient id="SVGID_34_" gradientUnits="userSpaceOnUse" x1="158.4731" y1="200.3668" x2="481.1314" y2="200.3668">
		<stop  offset="0" style="stop-color:#E9DEFF"/>
		<stop  offset="1" style="stop-color:#FF907F"/>
	</linearGradient>
	<polygon class="st55" points="481.1,215.7 294.5,297.5 158.5,103.2 474.3,205.5 	"/>
	<g>
		<ellipse class="st1" cx="43.3" cy="212" rx="9" ry="3.9"/>
		<polygon class="st1" points="52.3,212.3 34.2,212 32.6,193.4 53.9,193.4 		"/>
		<ellipse class="st2" cx="43.3" cy="193.7" rx="10.7" ry="4.6"/>
		<g>
			<g>
				<path class="st16" d="M41.3,192.8l1.3-62.9c0-0.4,0.3-0.7,0.7-0.7c0.4,0,0.7,0.3,0.7,0.7l1.3,62.9c0,1.1-0.9,2-2,2
					C42.2,194.9,41.3,194,41.3,192.8C41.3,192.9,41.3,192.9,41.3,192.8z"/>
			</g>
			<g>
				<path class="st16" d="M45.8,152.3c1.1,0.7,2.2,1.3,3.4,1.6c1.2,0.4,2.4,0.5,3.5,0.2c1.1-0.3,2.1-1.1,2.6-2.1
					c0.6-1.1,0.8-2.4,0.9-3.8c0-0.3,0.3-0.5,0.5-0.5c0.3,0,0.5,0.2,0.5,0.5c0.1,1.4,0,3-0.6,4.4c-0.6,1.5-1.8,2.8-3.3,3.4
					c-1.5,0.6-3.2,0.7-4.7,0.4c-1.5-0.3-3-0.8-4.3-1.5c-0.7-0.4-1.1-1.3-0.7-2c0.4-0.7,1.3-1.1,2-0.7
					C45.7,152.2,45.7,152.3,45.8,152.3L45.8,152.3z"/>
			</g>
			<g>
				<path class="st16" d="M41.8,172.9l-2.5-1.6l-1.2-0.8c-0.4-0.3-0.9-0.6-1.3-0.9c-1.7-1.3-3.2-2.9-4.4-4.5c-1.2-1.7-2.2-3.5-3-5.5
					c-0.7-1.9-1.2-4-1.1-6.1c0-0.4,0.3-0.7,0.7-0.6c0.3,0,0.6,0.3,0.6,0.6l0,0c0.1,1.8,0.7,3.6,1.6,5.3c0.9,1.7,1.9,3.2,3.2,4.6
					c1.3,1.4,2.7,2.6,4.2,3.5c0.4,0.2,0.7,0.4,1.2,0.6l1.3,0.7l2.6,1.3c1,0.5,1.4,1.7,0.9,2.7c-0.5,1-1.7,1.4-2.7,0.9
					C41.9,173,41.8,173,41.8,172.9z"/>
			</g>
		</g>
		<path class="st23" d="M57.7,156.9L57.7,156.9L57.7,156.9c0-3.3,2.7-6,6-6h0l0,0C63.7,154.3,61,156.9,57.7,156.9z"/>
		<path class="st23" d="M31.5,144.8L31.5,144.8L31.5,144.8c3.9,0,7,3.1,7,7l0,0h0C34.7,151.8,31.5,148.6,31.5,144.8z"/>
		<path class="st23" d="M52.9,131.2L52.9,131.2L52.9,131.2c0,3.3-2.7,6-6,6h0l0,0C46.9,133.9,49.6,131.2,52.9,131.2z"/>
		<path class="st23" d="M54.4,170.4L54.4,170.4L54.4,170.4c0,3.9-3.1,7-7,7h0l0,0C47.4,173.5,50.5,170.4,54.4,170.4z"/>
		<path class="st23" d="M32.1,174.2L32.1,174.2L32.1,174.2c-3.3,0-6-2.7-6-6l0,0h0C29.5,168.2,32.1,170.9,32.1,174.2z"/>
	</g>
	<g>
		
			<linearGradient id="SVGID_35_" gradientUnits="userSpaceOnUse" x1="379.1749" y1="-80.1146" x2="421.6842" y2="-80.1146" gradientTransform="matrix(1 0.5774 0 1 0 124.7805)">
			<stop  offset="0" style="stop-color:#554F77"/>
			<stop  offset="1" style="stop-color:#FF907F;stop-opacity:0.1"/>
		</linearGradient>
		<path class="st56" d="M383.2,248.6c3.9-1,8.9-0.1,14.4,3.1c12.5,7.2,22.5,23.1,22.5,35.6c0,12.5-10.1,16.7-22.5,9.5
			c-6.8-3.9-12.8-10.4-17-17.5"/>
		<g>
			<line class="st19" x1="393.9" y1="258.8" x2="402.6" y2="263.8"/>
			<line class="st5" x1="387.3" y1="255" x2="389.5" y2="256.3"/>
			<line class="st5" x1="376.2" y1="255.1" x2="391.5" y2="263.9"/>
			<line class="st19" x1="395.8" y1="266.5" x2="411.1" y2="275.3"/>
			<line class="st19" x1="378.8" y1="263.2" x2="384.9" y2="266.7"/>
			<line class="st5" x1="414.5" y1="283.8" x2="424.2" y2="289.4"/>
			<line class="st5" x1="389.3" y1="269.2" x2="410.2" y2="281.3"/>
			<line class="st5" x1="382.7" y1="272" x2="398" y2="280.8"/>
			<line class="st19" x1="402.4" y1="283.3" x2="411.1" y2="288.4"/>
			<line class="st5" x1="395.8" y1="286.1" x2="404.6" y2="291.1"/>
			<line class="st19" x1="388" y1="281.6" x2="391.5" y2="283.6"/>
		</g>
	</g>
	<g>
		<linearGradient id="SVGID_36_" gradientUnits="userSpaceOnUse" x1="173.094" y1="268.492" x2="230.0868" y2="268.492">
			<stop  offset="0" style="stop-color:#543F80"/>
			<stop  offset="0.8042" style="stop-color:#E9DEFF"/>
		</linearGradient>
		<polygon class="st57" points="205.2,285.2 173.1,266.4 198,251.8 230.1,270.6 		"/>
		<path class="st2" d="M299.4,183.8l-140.8-81.3l0,0c-3.2,1.9-5.2,5.3-5.2,9v98.1c0,5,2.7,9.7,7.1,12.2l128.6,74.2
			c3.2,1.9,7.2,1.9,10.4,0l0.1,0V183.8z"/>
		<path class="st1" d="M205.2,285.2l-32.1-18.8l20.6-53.9c4-10.6,16.6-15,26.4-9.3l0,0c7.7,4.5,11.1,14,7.9,22.3L205.2,285.2z"/>
		<path class="st1" d="M282.9,280c0,0.8-0.7,0.9-1.5,0.2c-0.8-0.7-1.5-1.9-1.5-2.8c0-0.8,0.7-0.9,1.5-0.2
			C282.2,278,282.9,279.2,282.9,280z"/>
		<path class="st1" d="M273.9,275.5c0,0.8-0.7,0.9-1.5,0.2c-0.8-0.7-1.5-1.9-1.5-2.8s0.7-0.9,1.5-0.2
			C273.2,273.5,273.9,274.7,273.9,275.5z"/>
	</g>
	
		<linearGradient id="SVGID_37_" gradientUnits="userSpaceOnUse" x1="69.8236" y1="429.0455" x2="136.8435" y2="429.0455" gradientTransform="matrix(1 0.5774 0 1 0 -342.5763)">
		<stop  offset="0" style="stop-color:#E9DEFF"/>
		<stop  offset="1" style="stop-color:#E9DEFF;stop-opacity:0.2"/>
	</linearGradient>
	<polygon class="st58" points="136.8,206.5 69.8,167.8 69.8,85.7 136.8,124.4 	"/>
	<g>
		<path class="st15" d="M126.8,130.9l-35.1-20.3c-0.7-0.4-1.3-1.4-1.3-2.1l0,0c0-0.7,0.6-1,1.3-0.6l35.1,20.3
			c0.7,0.4,1.3,1.4,1.3,2.1l0,0C128.1,131.1,127.5,131.4,126.8,130.9z"/>
		<g>
			<path class="st16" d="M78,101.5c0,0.5-0.4,0.7-0.9,0.4c-0.5-0.3-0.9-1-0.9-1.5s0.4-0.7,0.9-0.4C77.6,100.3,78,101,78,101.5z"/>
			<path class="st16" d="M81.5,103.5c0,0.5-0.4,0.7-0.9,0.4c-0.5-0.3-0.9-1-0.9-1.5s0.4-0.7,0.9-0.4C81.1,102.3,81.5,103,81.5,103.5
				z"/>
			<path class="st16" d="M85.1,105.5c0,0.5-0.4,0.7-0.9,0.4c-0.5-0.3-0.9-1-0.9-1.5c0-0.5,0.4-0.7,0.9-0.4
				C84.6,104.3,85.1,105,85.1,105.5z"/>
		</g>
	</g>
	<linearGradient id="SVGID_38_" gradientUnits="userSpaceOnUse" x1="47.4983" y1="50.2577" x2="85.1391" y2="50.2577">
		<stop  offset="0.3907" style="stop-color:#FF907F;stop-opacity:0.5"/>
		<stop  offset="1" style="stop-color:#FF907F"/>
	</linearGradient>
	<polygon class="st59" points="84.1,78.4 48.5,57.8 48.5,22.1 84.1,42.7 	"/>
	<linearGradient id="SVGID_39_" gradientUnits="userSpaceOnUse" x1="411.2787" y1="344.2908" x2="445.3739" y2="344.2908">
		<stop  offset="0" style="stop-color:#E9DEFF"/>
		<stop  offset="1" style="stop-color:#E9DEFF;stop-opacity:0.2"/>
	</linearGradient>
	<polygon class="st60" points="444.4,369.6 412.3,351.1 412.3,319 444.4,337.5 	"/>
	<g class="st33">
		<g>
			<linearGradient id="SVGID_40_" gradientUnits="userSpaceOnUse" x1="415.5993" y1="220.2407" x2="483.3982" y2="220.2407">
				<stop  offset="0" style="stop-color:#FF907F;stop-opacity:0.1"/>
				<stop  offset="1" style="stop-color:#E9DEFF"/>
			</linearGradient>
			<path class="st61" d="M476.4,219.2l-2.2,2c-0.1,0.1-0.3,0.1-0.4,0c-0.1-0.1-0.1-0.3,0-0.4c0,0,0,0,0.1,0L476.4,219.2z"/>
			<linearGradient id="SVGID_41_" gradientUnits="userSpaceOnUse" x1="415.5993" y1="226.3973" x2="483.3982" y2="226.3973">
				<stop  offset="0" style="stop-color:#FF907F;stop-opacity:0.1"/>
				<stop  offset="1" style="stop-color:#E9DEFF"/>
			</linearGradient>
			<path class="st62" d="M469.8,225.3l-3.7,3.4c-0.6,0.5-1.5,0.5-2.1-0.1c-0.5-0.6-0.5-1.5,0.1-2.1c0.1-0.1,0.2-0.1,0.2-0.2l4.3-2.6
				c0.4-0.3,1-0.1,1.3,0.3C470.2,224.5,470.1,225,469.8,225.3z"/>
			<linearGradient id="SVGID_42_" gradientUnits="userSpaceOnUse" x1="415.5993" y1="231.5938" x2="483.3982" y2="231.5938">
				<stop  offset="0" style="stop-color:#FF907F;stop-opacity:0.1"/>
				<stop  offset="1" style="stop-color:#E9DEFF"/>
			</linearGradient>
			<path class="st63" d="M463.8,230.8l-4.4,4.1c-1,0.9-2.5,0.8-3.4-0.1s-0.8-2.5,0.1-3.4c0.1-0.1,0.3-0.2,0.4-0.3l5.2-3.1
				c0.8-0.5,1.9-0.2,2.4,0.6C464.6,229.3,464.4,230.2,463.8,230.8z"/>
			<linearGradient id="SVGID_43_" gradientUnits="userSpaceOnUse" x1="415.5993" y1="237.1859" x2="483.3982" y2="237.1859">
				<stop  offset="0" style="stop-color:#FF907F;stop-opacity:0.1"/>
				<stop  offset="1" style="stop-color:#E9DEFF"/>
			</linearGradient>
			<path class="st64" d="M455.7,238.3l-2.2,2c-1.3,1.2-3.4,1.1-4.6-0.2c-1.2-1.3-1.1-3.4,0.2-4.6c0.2-0.2,0.4-0.3,0.5-0.4l2.6-1.5
				c1.4-0.8,3.2-0.4,4,1C457,235.8,456.7,237.4,455.7,238.3z"/>
			<linearGradient id="SVGID_44_" gradientUnits="userSpaceOnUse" x1="415.5993" y1="243.3426" x2="483.3982" y2="243.3426">
				<stop  offset="0" style="stop-color:#FF907F;stop-opacity:0.1"/>
				<stop  offset="1" style="stop-color:#E9DEFF"/>
			</linearGradient>
			<path class="st65" d="M449.1,244.4l-3.7,3.4c-1.8,1.6-4.6,1.5-6.2-0.2c-1.6-1.8-1.5-4.6,0.2-6.2c0.2-0.2,0.5-0.4,0.7-0.5l4.3-2.6
				c1.8-1.1,4.2-0.5,5.3,1.3C450.7,241.2,450.4,243.2,449.1,244.4z"/>
			<linearGradient id="SVGID_45_" gradientUnits="userSpaceOnUse" x1="415.5993" y1="248.539" x2="483.3982" y2="248.539">
				<stop  offset="0" style="stop-color:#FF907F;stop-opacity:0.1"/>
				<stop  offset="1" style="stop-color:#E9DEFF"/>
			</linearGradient>
			<path class="st66" d="M443.2,249.9l-4.4,4.1c-2.2,2-5.5,1.9-7.6-0.3c-2-2.2-1.9-5.5,0.3-7.6c0.3-0.2,0.6-0.5,0.9-0.7l5.2-3.1
				c2.2-1.3,5.1-0.6,6.5,1.6C445.2,245.9,444.8,248.4,443.2,249.9z"/>
			<linearGradient id="SVGID_46_" gradientUnits="userSpaceOnUse" x1="415.5993" y1="254.1311" x2="483.3982" y2="254.1311">
				<stop  offset="0" style="stop-color:#FF907F;stop-opacity:0.1"/>
				<stop  offset="1" style="stop-color:#E9DEFF"/>
			</linearGradient>
			<path class="st67" d="M435,257.4l-2.2,2c-2.5,2.3-6.4,2.2-8.7-0.3c-2.3-2.5-2.2-6.4,0.3-8.7c0.3-0.3,0.7-0.6,1-0.8l2.6-1.5
				c2.8-1.7,6.4-0.8,8,2C437.5,252.5,437,255.5,435,257.4z"/>
			<linearGradient id="SVGID_47_" gradientUnits="userSpaceOnUse" x1="415.5993" y1="259.2819" x2="483.3982" y2="259.2819">
				<stop  offset="0" style="stop-color:#FF907F;stop-opacity:0.1"/>
				<stop  offset="1" style="stop-color:#E9DEFF"/>
			</linearGradient>
			<path class="st68" d="M428.4,263.5l-1.6,1.5c-2.9,2.6-7.3,2.5-9.9-0.4c-2.6-2.9-2.5-7.3,0.4-9.9c0.4-0.3,0.8-0.6,1.2-0.9l1.9-1.1
				c3.2-1.9,7.4-0.9,9.3,2.4C431.3,257.8,430.7,261.4,428.4,263.5z"/>
		</g>
	</g>
	<g>
		<line class="st69" x1="302.9" y1="306.6" x2="300.7" y2="307.9"/>
		<line class="st70" x1="300.7" y1="307.9" x2="298.5" y2="309.2"/>
		<line class="st71" x1="298.5" y1="309.2" x2="275.3" y2="322.5"/>
		<g>
			<path class="st30" d="M275.2,324.3l-5.1,1.2l3.6-3.8c0.6-0.6,1.6-0.7,2.2-0.1c0.6,0.6,0.7,1.6,0.1,2.2
				C275.8,324.1,275.5,324.2,275.2,324.3z"/>
		</g>
		<line class="st72" x1="271.6" y1="324.7" x2="269.8" y2="325.7"/>
	</g>
	<g>
		
			<linearGradient id="SVGID_48_" gradientUnits="userSpaceOnUse" x1="310.2401" y1="451.6253" x2="402.3838" y2="451.6253" gradientTransform="matrix(1 0.5774 0 1 0 -342.5763)">
			<stop  offset="0" style="stop-color:#E9DEFF"/>
			<stop  offset="1" style="stop-color:#E9DEFF;stop-opacity:0.1"/>
		</linearGradient>
		<polygon class="st73" points="402.4,390 310.2,336.8 310.2,239.5 402.4,292.7 		"/>
		<g>
			<path class="st16" d="M363.2,280.6l-32-18.5c-0.7-0.4-1.2-1.3-1.2-1.9l0,0c0-0.7,0.6-0.9,1.2-0.5l32,18.5
				c0.7,0.4,1.2,1.3,1.2,1.9l0,0C364.4,280.8,363.9,281,363.2,280.6z"/>
			<g>
				<path class="st16" d="M318.8,253.7c0,0.5-0.4,0.6-0.9,0.4s-0.9-0.9-0.9-1.3s0.4-0.6,0.9-0.4S318.8,253.3,318.8,253.7z"/>
				<path class="st16" d="M322,255.6c0,0.5-0.4,0.6-0.9,0.4c-0.5-0.3-0.9-0.9-0.9-1.3c0-0.5,0.4-0.6,0.9-0.4S322,255.1,322,255.6z"
					/>
				<path class="st16" d="M325.2,257.4c0,0.5-0.4,0.6-0.9,0.4s-0.9-0.9-0.9-1.3c0-0.5,0.4-0.6,0.9-0.4
					C324.8,256.4,325.2,257,325.2,257.4z"/>
			</g>
		</g>
	</g>
	<path class="st2" d="M94.6,225.2l-15.6-9l16.7-9.6l15.6,9L94.6,225.2z"/>
	<path class="st1" d="M100.7,235.4l-15.6-9l16.7-9.6l15.6,9L100.7,235.4z"/>
	<g>
		<line class="st5" x1="322.7" y1="290.1" x2="388.5" y2="328.1"/>
		<path class="st74" d="M367,315.8l-5.8-3.4c-3-1.7-5.5-0.7-5.5,2.3v0c0,3-2.4,4-5.5,2.3l-11.2-6.5c-3-1.7-5.5-5.6-5.5-8.6v0
			c0-3-2.4-6.9-5.5-8.6l-5.4-3.1"/>
		<path class="st74" d="M388.5,350.1l-5.8-3.4c-3-1.7-5.5-0.7-5.5,2.3l0,0c0,3-2.4,4-5.5,2.3l-11.2-6.5c-3-1.7-5.5-5.6-5.5-8.6l0,0
			c0-3-2.4-6.9-5.5-8.6l-5.4-3.1"/>
		<path class="st74" d="M372.4,340.7l-11.2-6.5c-3-1.7-5.5-5.6-5.5-8.6l0,0c0-3-2.4-6.9-5.5-8.6l-5.4-3.1"/>
		<line class="st5" x1="322.7" y1="312.1" x2="388.5" y2="350.1"/>
		<text transform="matrix(1 0.5774 0 1 318.3683 276.1228)" class="st2 st75 st76">v0.1</text>
		<text transform="matrix(1 0.5774 0 1 361.8389 301.2205)" class="st2 st75 st76">v0.2</text>
		<text transform="matrix(1 0.5774 0 1 383.7011 313.8426)" class="st2 st75 st76">v0.3</text>
		<path class="st1" d="M325.3,291.7c0,1.4-1.1,1.9-2.5,1.1s-2.5-2.6-2.5-3.9c0-1.4,1.1-1.9,2.5-1.1S325.3,290.3,325.3,291.7z"/>
		<path class="st1" d="M391,329.6c0,1.4-1.1,1.9-2.5,1.1c-1.4-0.8-2.5-2.6-2.5-3.9c0-1.4,1.1-1.9,2.5-1.1
			C389.9,326.5,391,328.2,391,329.6z"/>
		<path class="st1" d="M347.4,315.4c0,1.4-1.1,1.9-2.5,1.1c-1.4-0.8-2.5-2.6-2.5-3.9s1.1-1.9,2.5-1.1
			C346.3,312.2,347.4,314,347.4,315.4z"/>
		<path class="st77" d="M325.3,313.5c0,1.4-1.1,1.9-2.5,1.1s-2.5-2.6-2.5-3.9s1.1-1.9,2.5-1.1S325.3,312.1,325.3,313.5z"/>
		<path class="st77" d="M347.4,326.3c0,1.4-1.1,1.9-2.5,1.1s-2.5-2.6-2.5-3.9s1.1-1.9,2.5-1.1S347.4,324.9,347.4,326.3z"/>
		<path class="st1" d="M369.5,317.2c0,1.4-1.1,1.9-2.5,1.1c-1.4-0.8-2.5-2.6-2.5-3.9c0-1.4,1.1-1.9,2.5-1.1
			C368.4,314.1,369.5,315.8,369.5,317.2z"/>
		<path class="st77" d="M391,351.5c0,1.4-1.1,1.9-2.5,1.1c-1.4-0.8-2.5-2.6-2.5-3.9s1.1-1.9,2.5-1.1
			C389.9,348.3,391,350.1,391,351.5z"/>
		<path class="st77" d="M368.9,338.7c0,1.4-1.1,1.9-2.5,1.1c-1.4-0.8-2.5-2.6-2.5-3.9s1.1-1.9,2.5-1.1
			C367.8,335.6,368.9,337.3,368.9,338.7z"/>
		<path class="st77" d="M368.9,350.1c0,1.4-1.1,1.9-2.5,1.1c-1.4-0.8-2.5-2.6-2.5-3.9c0-1.4,1.1-1.9,2.5-1.1
			C367.7,347,368.9,348.7,368.9,350.1z"/>
		<polyline class="st78" points="390.5,321 388.5,321.9 386.5,318.7 		"/>
		<polyline class="st78" points="369,308.6 367,309.5 365,306.3 		"/>
		<polyline class="st78" points="324.7,283 322.7,283.9 320.7,280.7 		"/>
	</g>
	<g>
		<path class="st79" d="M116,175.9l-3.2-4.7c-9.5-14.1-12.7-29.5-8.2-38.9l0.8-1.6"/>
		<path class="st80" d="M123.8,159.2l-9.3-3.7c-6.4-2.5-9.9,2.3-7.3,9.7l3.9,10.9"/>
		<path class="st79" d="M120.9,150.6l-11.3-0.3c-2.3-0.1-4.7-4-3.4-5.5l6.1-6.6"/>
		<path class="st79" d="M121,173.1l-8.8-10.5c-5.3-6.3-12.2-8-14.6-3.7l-4,7.3"/>
		<path class="st81" d="M93.6,126.1l4.8,12.9c1.4,3.7-1.8,4.8-4.6,1.6L83,128.3"/>
		<path class="st79" d="M124.2,163.4l-15.1-8.7c-4.1-2.4-8.2-4-12.1-4.7l-14.9-2.8"/>
		<path class="st81" d="M97.8,170l1.1-5.2c1.6-7.4-4.6-18.9-13.1-24.2l-5.2-3.3"/>
		<path class="st80" d="M89.1,125.2l4.3,8.6c3.1,6.1-0.7,9.8-5.9,5.8l-6.7-5.1"/>
		<g>
			<path class="st82" d="M122.9,170.2c0.9-1.9,1.3-4.1,1.3-6.8c0-6.1-2.5-13.1-6.5-19.4"/>
			<path class="st83" d="M117.7,144c-4-6.3-9.5-12-15.7-15.5"/>
			<path class="st53" d="M102,128.5c-6.8-3.9-12.9-4.4-17-1.9"/>
			<path class="st82" d="M119,174.7c1.6-1,3-2.5,3.9-4.4"/>
			<path class="st53" d="M102,172.8c6.8,3.9,12.9,4.4,17,1.9"/>
			<path class="st82" d="M86.4,157.3c4,6.3,9.5,12,15.7,15.5"/>
			<path class="st53" d="M85.1,126.6c-1.6,1-3,2.5-3.9,4.4"/>
			<path class="st82" d="M81.2,131c-0.9,1.9-1.3,4.1-1.3,6.8c0,6.1,2.5,13.1,6.5,19.4"/>
		</g>
	</g>
	<path class="st84" d="M82.4,118.2c0,0.8-0.7,1.1-1.5,0.6c-0.8-0.5-1.5-1.5-1.5-2.4c0-0.8,0.7-1.1,1.5-0.6
		C81.8,116.3,82.4,117.4,82.4,118.2z"/>
	<path class="st74" d="M125.3,186.6c0,0.8-0.7,1.1-1.5,0.6c-0.8-0.5-1.5-1.5-1.5-2.4s0.7-1.1,1.5-0.6
		C124.7,184.7,125.3,185.8,125.3,186.6z"/>
	<g>
		<path class="st74" d="M339,37.1c0,0,4.8-1.3,12.3,6.2c0.8,0.8,1.3,1.4,1.3,1.4l-0.8,0.3c0,0-0.8,4.9-2.4,4.5
			c-1.7-0.4-7.4-2.8-9.3-6.8C338.8,40,339,37.1,339,37.1z"/>
		<path class="st85" d="M336.2,35.4c0,0-4.8-6.9-12.3-8c-0.8-0.1-1.3,0-1.3,0l0.8,1.3c0,0,0.8,5.8,2.4,7.3c1.7,1.5,7.4,5.7,9.3,3.9
			C336.4,38.6,336.2,35.4,336.2,35.4z"/>
		<path class="st74" d="M336.1,35.3c0.5,0.3,1,0.5,1.5,0.8c0.5,0.3,1,0.6,1.5,0.9"/>
	</g>
</g>
</svg>
