<?xml version="1.0"?>
<svg xmlns="http://www.w3.org/2000/svg" xmlns:xlink="http://www.w3.org/1999/xlink" version="1.1" viewBox="0 0 224 224" width="50px" height="50px"><g transform=""><g fill="none" fill-rule="nonzero" stroke="none" stroke-width="1" stroke-linecap="butt" stroke-linejoin="miter" stroke-miterlimit="10" stroke-dasharray="" stroke-dashoffset="0" font-family="none" font-weight="none" font-size="none" text-anchor="none" style="mix-blend-mode: normal"><path d="M0,224v-224h224v224z" fill="none"/><g fill="#ffff56"><g id="surface1"><path d="M194.145,17.92h-164.2725c-6.5975,0 -11.9525,5.355 -11.9525,11.9525v164.255c0,6.5975 5.355,11.9525 11.9525,11.9525h164.255c6.5975,0 11.9525,-5.355 11.9525,-11.935v-164.2725c0,-6.5975 -5.355,-11.9525 -11.935,-11.9525zM120.96,162.1025c0,17.9025 -10.5,26.0575 -25.83,26.0575c-13.86,0 -23.8525,-9.2925 -27.93,-17.92l14.0875,-8.5225c2.7125,4.8125 6.8425,8.5225 12.7925,8.5225c5.6875,0 8.96,-2.2225 8.96,-10.8675v-56.3325h17.92zM159.8275,188.16c-15.8725,0 -24.885,-7.9975 -29.9075,-17.92l13.44,-8.96c3.6575,5.985 7.6475,11.7075 16.0825,11.7075c7.0875,0 10.7975,-3.535 10.7975,-8.435c0,-5.845 -3.85,-7.9275 -11.6375,-11.34l-4.27,-1.8375c-12.3375,-5.25 -20.545,-11.83 -20.545,-25.76c0,-12.81 9.7825,-22.575 25.0425,-22.575c10.8675,0 18.6725,3.78 24.3075,13.685l-13.3,8.5575c-2.94,-5.2675 -6.09,-7.3325 -11.0075,-7.3325c-5.005,0 -8.1725,3.185 -8.1725,7.3325c0,5.1275 3.1675,7.1925 10.5,10.3775l4.27,1.8375c14.5425,6.2125 22.7325,12.565 22.7325,26.845c0,15.3825 -12.0925,23.8175 -28.3325,23.8175z"/></g></g><path d="M112,224c-61.85589,0 -112,-50.14411 -112,-112v0c0,-61.85589 50.14411,-112 112,-112v0c61.85589,0 112,50.14411 112,112v0c0,61.85589 -50.14411,112 -112,112z" fill="none"/><path d="M112,219.52c-59.38166,0 -107.52,-48.13834 -107.52,-107.52v0c0,-59.38166 48.13834,-107.52 107.52,-107.52h0c59.38166,0 107.52,48.13834 107.52,107.52v0c0,59.38166 -48.13834,107.52 -107.52,107.52z" fill="none"/><path d="M0,224v-224h224v224z" fill="none"/><path d="M4.48,219.52v-215.04h215.04v215.04z" fill="none"/><path d="" fill="none"/><path d="" fill="none"/></g></g></svg>
